<svg width="125" height="125" viewBox="0 0 125 125" fill="none" xmlns="http://www.w3.org/2000/svg"><path fill-rule="evenodd" clip-rule="evenodd" d="M125 62.5C125 27.944 97.007 0 62.531 0 27.993 0 0 28.006 0 62.5c0 33.433 26.247 60.753 59.227 62.438V92.752c0-5.177-10.786-7.922-10.786-16.155 1.31-16.966 2.681-33.932 3.99-50.898.562-.312 1.185-.687 1.746 0 .312 15.406.623 30.813.873 46.22.499.998 1.122.998 1.87 0 .374-15.345.748-30.751 1.185-46.096.686-.748 1.184-.748 2.057.063.374 15.344.998 30.688 1.372 46.095.685.749 1.309.749 1.995 0 .436-15.344.81-30.689 1.247-46.033.623-.748 1.184-.748 1.745 0 .437 15.344.935 30.689 1.372 46.033.748.998 1.434.998 2.182 0 .311-15.344.686-30.689.997-46.033.686-.686 1.247-.624 1.746.063l3.616 50.648c0 8.234-10.786 10.978-10.786 16.155V125C98.753 123.253 125 95.933 125 62.5z" fill="#473A26"/></svg>