<svg width="50" height="50" viewBox="0 0 50 50" fill="none" xmlns="http://www.w3.org/2000/svg">
<rect width="49.2307" height="49.2307" rx="8" fill="white"/>
<path d="M37.7433 39.0853L31.2568 34.0395L31.9776 36.2024H14.6803C12.6904 36.2024 11.0767 34.5894 11.0767 32.5988V13.8601C11.0767 11.8694 12.6904 10.2565 14.6803 10.2565H34.1397C36.1303 10.2565 37.7433 11.8694 37.7433 13.8601V39.0853Z" fill="black"/>
<path d="M30.9617 18.3573C30.9617 18.3573 29.0878 16.9087 26.868 16.7429L26.6734 17.1393C28.677 17.6222 29.5924 18.3213 30.5509 19.179C28.9005 18.3357 27.2644 17.4636 24.4104 17.4636C21.5563 17.4636 19.9203 18.3357 18.2698 19.179C19.2284 18.3213 20.3239 17.5429 22.1473 17.1393L21.9527 16.7429C19.6248 16.9663 17.859 18.3573 17.859 18.3573C17.859 18.3573 15.7617 21.3772 15.4014 27.2799C17.5203 29.7015 20.7275 29.7159 20.7275 29.7159L21.3906 28.8294C20.259 28.4402 18.9689 27.7411 17.859 26.4726C19.1851 27.4672 21.1815 28.2744 24.4104 28.2744C27.6392 28.2744 29.6356 27.4672 30.9617 26.4726C29.8518 27.7411 28.5617 28.4402 27.4302 28.8294L28.0933 29.7159C28.0933 29.7159 31.3005 29.7015 33.4194 27.2799C33.059 21.3772 30.9617 18.3573 30.9617 18.3573ZM21.8879 26.1123C21.0951 26.1123 20.4464 25.3051 20.4464 24.3105C20.4464 23.3159 21.0951 22.5087 21.8879 22.5087C22.6806 22.5087 23.3293 23.3159 23.3293 24.3105C23.3293 25.3051 22.6806 26.1123 21.8879 26.1123ZM26.9329 26.1123C26.1401 26.1123 25.4915 25.3051 25.4915 24.3105C25.4915 23.3159 26.1401 22.5087 26.9329 22.5087C27.7257 22.5087 28.3743 23.3159 28.3743 24.3105C28.3743 25.3051 27.7257 26.1123 26.9329 26.1123Z" fill="white"/>
</svg>
