<svg width="204" height="39" viewBox="0 0 204 39" fill="none" xmlns="http://www.w3.org/2000/svg">
<path d="M66.627 6.86925C52.7582 6.72911 53.0514 6.54393 53.002 7.20867C52.9328 8.13522 54.685 7.43284 55.1041 8.9307L55.1061 8.94548C55.1484 10.277 55.044 27.1783 55.0373 28.2288C55.0225 28.3353 54.904 28.9836 54.1984 29.3694C53.9943 29.4813 53.8915 29.7172 53.9493 29.9427C54.0067 30.1683 54.2099 30.3262 54.4426 30.3262H54.549C56.6867 30.3262 59.5796 30.3884 61.22 30.6845C62.3792 30.8938 63.5132 31 64.5908 31C64.5914 31 64.5911 31 64.5914 31C72.9703 31 77.3877 24.5898 77.4196 18.2583C77.4472 12.8261 74.0814 6.94487 66.627 6.86925ZM59.3325 8.80568C74.1036 7.85662 74.3474 19.0343 72.1241 24.5048C70.9605 27.3678 66.8839 29.0787 63.6139 29.0787C61.5911 29.0784 60.1142 28.4382 59.449 27.2744L59.3325 8.80568Z" fill="white"/>
<path d="M86.2336 18.7379C86.2336 26.7136 92.7559 30.8865 99.1982 30.8865C105.446 30.8865 112.085 26.4276 112.085 18.1643C112.085 2.42377 86.2336 2.02116 86.2336 18.7379ZM90.8626 18.6882C90.8626 12.8403 92.546 8.13595 98.4433 8.13595C103.069 8.13595 107.282 12.8957 107.282 18.133C107.382 22.8407 106.337 28.5599 100.798 29.0943C95.0678 29.0859 91.725 25.578 90.8643 18.698L90.8626 18.6882Z" fill="white"/>
<path d="M140.075 6.55839C139.565 6.72105 138.946 6.83028 138.536 6.83028C138.113 6.83028 122.869 6.80843 121.953 6.80709C121.321 6.47606 120.338 6.07277 120.186 6.76877L119.554 9.64586C119.501 9.88581 119.627 10.1291 119.853 10.2249C120.078 10.32 120.34 10.241 120.476 10.036C120.75 9.61965 121.164 9.30441 121.739 9.0732C123.215 9.01405 127.176 9.00732 128.046 9.00632L127.956 28.372C127.954 28.4005 127.915 29.071 127.292 29.4511C126.854 29.7179 127.043 30.3961 127.556 30.3961C127.56 30.3961 132.983 30.3716 132.987 30.3716C133.521 30.3692 133.691 29.643 133.211 29.4054C132.766 29.1846 132.53 28.8515 132.492 28.4187C132.471 27.518 132.336 12.1697 132.309 9.01036L137.859 9.1421C137.909 9.14445 139.08 9.21099 139.495 10.3792C139.577 10.6094 139.812 10.7488 140.053 10.7119C140.588 10.6295 140.488 10.2457 140.561 7.84318C140.677 7.58037 140.772 7.21608 140.733 6.96504C140.684 6.65619 140.373 6.46496 140.075 6.55839Z" fill="white"/>
<path d="M171.028 23.224C169.663 23.2025 166.816 23.1998 166.211 23.1995C166.191 23.1511 159.389 6.31169 159.389 6.31169C159.205 5.87581 158.613 5.91479 158.449 6.3184L149.558 28.2019C149.554 28.2099 149.159 29.0004 148.196 29.4625C147.708 29.6964 147.877 30.4307 148.415 30.4317C148.442 30.4317 152.445 30.4381 152.445 30.4381C153.018 30.4381 153.149 29.6355 152.614 29.4473C152.332 29.3055 152.202 29.1062 152.282 28.8004C152.567 27.8184 153.328 25.6871 153.513 25.1739L162.384 25.1971L164.127 29.3321C164.134 29.3492 164.153 29.4265 164.095 29.5125C163.799 29.8362 164.025 30.3601 164.463 30.3665C164.499 30.3672 169.524 30.4381 169.524 30.4381C169.823 30.4381 170.039 30.2005 170.039 29.9286C170.039 29.7051 169.895 29.5149 169.695 29.4463C169.028 29.1244 168.748 28.8186 167.034 25.1813C168.548 25.2135 168.834 24.5307 171.085 24.2389C171.35 24.2047 171.543 23.9714 171.528 23.7049C171.513 23.4384 171.295 23.2284 171.028 23.224ZM158.076 13.2636L161.648 23.1679L154.203 23.2539L158.076 13.2636Z" fill="white"/>
<path d="M202.693 25.0736C202.203 26.1456 201.599 27.1979 200.088 27.259C199.301 27.29 195.11 27.456 192.478 27.4365C208.265 15.386 204.061 6.31348 194.655 6.31348C192.593 6.31348 190.521 6.81053 188.969 7.67725C188.819 7.76093 188.722 7.91419 188.71 8.08491C188.67 8.63069 188.775 9.73333 189.022 11.3623C189.057 11.5928 189.244 11.7702 189.476 11.7928C189.707 11.8136 189.926 11.6768 190.005 11.4577C190.912 8.92575 192.736 8.02374 194.14 8.02374C196.149 8.02374 198.249 9.74912 198.376 13.0466C198.658 20.3851 189.726 27.3108 187.724 29.2183C187.384 29.5114 187.118 29.8202 187.399 30.1758C187.399 30.816 188.209 30.8977 188.39 30.3751C190.108 30.365 199.434 30.3112 201.16 30.33C202.412 30.4208 203.03 29.6929 203.058 28.8789L203.658 25.3713C203.758 24.7856 202.939 24.5352 202.693 25.0736Z" fill="white"/>
<path d="M38.8552 8.97515C38.7031 1.78225 38.6936 3.33704 38.8418 1.09523C38.8506 0.962322 38.7502 0.847478 38.6174 0.838396C27.9067 0.105776 27.5008 0.0213029 26.6708 0.0213029C12.0594 0.020131 19.7304 -0.218639 0.227192 0.931853C0.0946722 0.939763 -0.00659782 1.05305 0.000335801 1.18547C1.25727 25.301 1.21137 21.367 0.569283 37.4393C0.564693 37.5548 0.642525 37.6572 0.755026 37.6838C2.2147 38.0289 1.95601 37.893 5.361 37.8955C5.36656 37.8971 11.742 37.2009 11.7477 37.2004C11.7778 37.2053 20.5639 38.6473 20.5944 38.6473C20.6012 38.6473 20.6078 38.647 20.6146 38.6465C30.9116 37.7836 27.9601 37.9921 34.6032 37.6239L38.5039 38.4129C38.6556 38.4433 38.7948 38.326 38.7931 38.1736C38.7087 30.3202 38.8552 8.97515 38.8552 8.97515ZM23.0212 8.40268C23.0502 8.39565 23.0917 8.3855 23.1435 8.37173L25.9199 7.74604C27.342 7.38969 27.5522 7.30287 28.7692 6.7307H28.7693C29.3312 6.92563 30.8718 7.77817 31.2624 8.26762C31.5205 8.59165 31.5035 8.66372 31.4223 9.01069C31.4067 9.07729 31.3888 9.15396 31.3701 9.24448C31.3688 9.25044 31.3678 9.25659 31.3669 9.26265L30.7564 14.0404C30.1523 14.0627 30.1019 14.0164 29.9348 13.8626C29.8659 13.7989 29.78 13.7198 29.6287 13.6183C28.71 13.0017 25.7035 10.7772 24.7542 10.0115L22.888 8.51206L22.9031 8.49751C22.9233 8.47739 22.9412 8.45034 22.9531 8.42446C22.9625 8.41714 22.9994 8.40805 23.0212 8.40268ZM27.3478 32.4584C27.2932 32.4039 4.01724 7.72846 4.00015 7.69438L6.03366 6.13441L34.4507 24.951C34.2159 25.6239 34.1221 26.3962 33.9809 27.0375C33.4817 29.3025 32.8397 30.2935 31.8358 32.4455C30.3989 32.5026 27.4467 32.4915 27.3478 32.4584ZM6.17428 25.7825C6.4359 25.1537 6.79557 24.1422 7.09792 23.6298C8.58425 24.5586 14.3905 30.3925 14.8955 31.1802C14.6158 31.284 13.4144 31.4625 11.4184 32.2599C10.1538 32.7644 8.95964 33.243 7.80622 32.8516C7.69118 32.8128 7.38454 32.5526 6.92985 32.1601C6.09938 31.4432 5.34733 30.9267 4.91002 30.6686C4.16412 30.2283 4.28033 30.3211 6.17428 25.7825Z" fill="#EA473B"/>
<path d="M2.97036 25.8338C2.78813 16.4339 2.99165 21.5543 1.91157 0.83252L0.227192 0.931836C0.0946721 0.939747 -0.00659781 1.05303 0.000335801 1.18545L0.897115 18.3913C1.07524 27.582 1.12397 23.5544 0.569282 37.4393C0.564692 37.5547 0.642525 37.6572 0.755025 37.6837C1.57876 37.8786 1.92114 37.9222 2.50063 37.9222C2.48247 37.8602 2.46245 38.5455 2.97036 25.8338Z" fill="#D82B27"/>
<path d="M16.1043 31.7114C16.1043 31.7114 17.0892 31.3723 16.2796 30.4837C12.9747 26.7976 10.9614 25.4623 9.04781 23.3628C8.2481 22.4971 7.0979 23.6297 7.0979 23.6297C14.5766 30.2776 13.0784 29.3153 14.3967 30.5882C14.5717 30.7571 14.7097 30.8905 14.8955 31.1801C14.8609 31.1929 14.7081 31.2315 14.4966 31.2849C11.385 32.0701 10.9182 32.6031 9.52887 32.9009C10.8255 33.958 13.1118 32.6682 14.7418 32.107C15.1315 31.9729 15.6478 31.8306 16.1043 31.7114Z" fill="#D82B27"/>
<path d="M35.8655 22.9938C35.8654 22.9937 8.69796 5.66828 8.69796 5.66828C7.7878 5.08791 6.80625 5.36721 6.03369 6.1344L34.4508 24.951C34.2159 25.6239 34.1222 26.3962 33.981 27.0375C33.4817 29.3025 32.8397 30.2935 31.8358 32.4454C31.8358 32.4454 34.4095 32.9402 35.1941 31.1985C37.0353 27.2801 36.6102 26.541 37.0488 25.3038C36.9968 24.606 37.0938 23.7772 35.8655 22.9938Z" fill="#D82B27"/>
<path d="M31.3702 9.24446C31.3689 9.25042 31.3679 9.25657 31.367 9.26262L30.7565 14.0404C30.7565 14.0404 33.1721 15.5324 33.4756 13.0792C33.4757 13.0785 33.4758 13.0777 33.4759 13.0769L33.9757 9.03792C33.9765 9.03176 33.9775 9.02551 33.9789 9.01936C33.9979 8.92678 34.0163 8.84846 34.0322 8.7804C34.1151 8.42571 34.1325 8.35198 33.8686 8.02073C33.5913 7.67307 32.3485 6.75549 31.4226 6.16047C30.5487 5.57453 29.5108 6.27912 29.5108 6.27912C29.2517 6.47765 29.0202 6.65109 28.7693 6.73068C29.404 7.07395 31.0121 7.95393 31.2624 8.2676C31.5205 8.59163 31.5035 8.6637 31.4223 9.01067C31.4067 9.07737 31.3888 9.15403 31.3702 9.24446Z" fill="#D82B27"/>
</svg>
