<svg width="125" height="125" viewBox="0 0 125 125" fill="none" xmlns="http://www.w3.org/2000/svg">
<path fill-rule="evenodd" clip-rule="evenodd" d="M125 62.5C125 27.9441 97.0075 0 62.5312 0C27.9925 0 0 28.0065 0 62.5C0 95.9331 26.2469 123.253 59.2269 124.938V92.752C59.2269 87.5748 48.4414 84.8303 48.4414 76.5968C49.7506 59.6307 51.1222 42.6647 52.4314 25.6986C52.9925 25.3867 53.616 25.0125 54.1771 25.6986C54.4888 41.1053 54.8005 56.512 55.0499 71.9187C55.5486 72.9167 56.1721 72.9167 56.9202 71.9187C57.2943 56.5744 57.6683 41.1677 58.1047 25.8234C58.7905 25.0749 59.2893 25.0749 60.1621 25.8857C60.5362 41.23 61.1596 56.5744 61.5337 71.981C62.2194 72.7295 62.8429 72.7295 63.5287 71.981C63.9651 56.6367 64.3391 41.2924 64.7756 25.9481C65.399 25.1996 65.9601 25.1996 66.5212 25.9481C66.9576 41.2924 67.4564 56.6367 67.8928 71.981C68.6409 72.979 69.3267 72.979 70.0748 71.981C70.3865 56.6367 70.7606 41.2924 71.0723 25.9481C71.7581 25.262 72.3192 25.3243 72.818 26.0105L76.4339 76.6592C76.4339 84.8927 65.6484 87.6372 65.6484 92.8144V125C98.7531 123.253 125 95.9331 125 62.5Z" fill="#473A26"/>
</svg>
