<svg width="50" height="50" viewBox="0 0 50 50" fill="none" xmlns="http://www.w3.org/2000/svg">
<rect x="0.230469" width="49.2307" height="49.2307" rx="8" fill="white"/>
<path d="M40.1658 18.12C40.0931 16.4718 39.8266 15.3386 39.4447 14.3568C39.0509 13.3145 38.4449 12.3814 37.6509 11.6057C36.8752 10.8179 35.936 10.2058 34.9058 9.81807C33.9182 9.43626 32.791 9.16972 31.1428 9.09705C29.4823 9.01823 28.9551 9 24.7436 9C20.532 9 20.0048 9.01823 18.3505 9.0909C16.7023 9.16357 15.5691 9.43034 14.5875 9.81192C13.545 10.2058 12.6119 10.8118 11.8362 11.6057C11.0484 12.3814 10.4365 13.3207 10.0485 14.3509C9.66673 15.3386 9.40019 16.4656 9.32752 18.1139C9.2487 19.7744 9.23047 20.3015 9.23047 24.5131C9.23047 28.7247 9.2487 29.2518 9.32137 30.9062C9.39404 32.5544 9.66081 33.6875 10.0426 34.6694C10.4365 35.7117 11.0484 36.6448 11.8362 37.4205C12.6119 38.2083 13.5512 38.8204 14.5813 39.2081C15.5691 39.5899 16.6961 39.8565 18.3446 39.9291C19.9987 40.0021 20.5261 40.02 24.7376 40.02C28.9492 40.02 29.4764 40.0021 31.1307 39.9291C32.779 39.8565 33.9121 39.5899 34.8937 39.2081C36.9784 38.4021 38.6267 36.7539 39.4327 34.6694C39.8142 33.6816 40.081 32.5544 40.1537 30.9062C40.2264 29.2518 40.2446 28.7247 40.2446 24.5131C40.2446 20.3015 40.2384 19.7744 40.1658 18.12ZM37.3723 30.785C37.3056 32.2999 37.0511 33.118 36.839 33.6634C36.3178 35.0148 35.2453 36.0873 33.8939 36.6086C33.3485 36.8207 32.5245 37.0751 31.0155 37.1416C29.3793 37.2145 28.8886 37.2325 24.7497 37.2325C20.6108 37.2325 20.114 37.2145 18.4837 37.1416C16.9688 37.0751 16.1507 36.8207 15.6053 36.6086C14.9328 36.36 14.3207 35.9661 13.8238 35.451C13.3088 34.948 12.9149 34.3421 12.6663 33.6696C12.4542 33.1242 12.1998 32.2999 12.1333 30.7912C12.0603 29.155 12.0424 28.6641 12.0424 24.5252C12.0424 20.3863 12.0603 19.8894 12.1333 18.2594C12.1998 16.7445 12.4542 15.9264 12.6663 15.381C12.9149 14.7083 13.3088 14.0964 13.83 13.5993C14.3328 13.0842 14.9388 12.6903 15.6115 12.442C16.1569 12.2299 16.9811 11.9755 18.4899 11.9087C20.126 11.836 20.617 11.8178 24.7556 11.8178C28.9007 11.8178 29.3914 11.836 31.0216 11.9087C32.5366 11.9755 33.3546 12.2299 33.9 12.442C34.5725 12.6903 35.1847 13.0842 35.6815 13.5993C36.1966 14.1023 36.5905 14.7083 36.839 15.381C37.0511 15.9264 37.3056 16.7504 37.3723 18.2594C37.445 19.8956 37.4632 20.3863 37.4632 24.5252C37.4632 28.6641 37.445 29.1488 37.3723 30.785Z" fill="black"/>
<path d="M24.7438 16.5446C20.3445 16.5446 16.7751 20.1137 16.7751 24.5132C16.7751 28.9127 20.3445 32.4818 24.7438 32.4818C29.1433 32.4818 32.7124 28.9127 32.7124 24.5132C32.7124 20.1137 29.1433 16.5446 24.7438 16.5446ZM24.7438 29.6823C21.8898 29.6823 19.5747 27.3675 19.5747 24.5132C19.5747 21.6589 21.8898 19.3441 24.7438 19.3441C27.5981 19.3441 29.9128 21.6589 29.9128 24.5132C29.9128 27.3675 27.5981 29.6823 24.7438 29.6823Z" fill="black"/>
<path d="M34.8879 16.2295C34.8879 17.2568 34.0549 18.0898 33.0273 18.0898C32 18.0898 31.167 17.2568 31.167 16.2295C31.167 15.2019 32 14.3691 33.0273 14.3691C34.0549 14.3691 34.8879 15.2019 34.8879 16.2295Z" fill="black"/>
</svg>
