<svg width="37" height="37" viewBox="0 0 37 37" fill="none" xmlns="http://www.w3.org/2000/svg">
<path d="M24.6667 6.16626H12.3334C8.92763 6.16626 6.16672 8.92717 6.16672 12.3329V24.6663C6.16672 28.072 8.92763 30.8329 12.3334 30.8329H24.6667C28.0725 30.8329 30.8334 28.072 30.8334 24.6663V12.3329C30.8334 8.92717 28.0725 6.16626 24.6667 6.16626Z" stroke="white" stroke-width="1.78697" stroke-linecap="round" stroke-linejoin="round"/>
<path d="M18.5 23.1252C21.0543 23.1252 23.125 21.0546 23.125 18.5002C23.125 15.9459 21.0543 13.8752 18.5 13.8752C15.9457 13.8752 13.875 15.9459 13.875 18.5002C13.875 21.0546 15.9457 23.1252 18.5 23.1252Z" stroke="white" stroke-width="1.78697" stroke-linecap="round" stroke-linejoin="round"/>
<path d="M25.4375 11.5627V11.5637" stroke="white" stroke-width="1.78697" stroke-linecap="round" stroke-linejoin="round"/>
</svg>
