<svg width="112" height="19" viewBox="0 0 112 19" fill="none" xmlns="http://www.w3.org/2000/svg">
<path d="M12.3232 2.36351H11.6979V0.804565H7.87647V2.36351H7.18166C3.01282 2.36351 0.372559 4.39691 0.372559 8.05703V8.73483C0.372559 12.3272 2.94334 14.3606 7.25114 14.3606H7.87647V15.9195H11.6979V14.3606H12.3232C16.5615 14.3606 19.2018 12.3272 19.2018 8.66705V7.98925C19.2018 4.26135 16.5615 2.29573 12.3232 2.29573V2.36351ZM7.0427 11.7172C5.16672 11.7172 4.19399 10.5649 4.19399 8.53149V8.26037C4.19399 6.22697 5.16672 5.07471 7.0427 5.07471H7.87647V11.6494H7.0427V11.7172ZM15.3804 8.53149C15.3804 10.5649 14.3382 11.7172 12.4622 11.7172H11.6979V5.07471H12.4622C14.3382 5.07471 15.3804 6.15919 15.3804 8.26037V8.53149ZM26.9836 5.14249C23.3012 5.14249 20.7999 7.37923 20.7999 10.5649C20.7999 13.8183 23.3012 15.9873 26.9836 15.9873C30.6661 15.9873 33.1674 13.8183 33.1674 10.5649C33.1674 7.37923 30.6661 5.14249 26.9836 5.14249ZM26.9836 13.2761C25.3856 13.2761 24.3434 12.1916 24.3434 10.5649C24.3434 8.93817 25.3856 7.85369 26.9836 7.85369C28.5122 7.85369 29.6239 8.93817 29.6239 10.5649C29.6239 12.1916 28.5122 13.2761 26.9836 13.2761ZM47.133 5.34583H43.1031L38.9343 10.226V5.34583H35.4603V15.784H38.9343V10.9038L43.1031 15.784H47.4109L42.5473 10.3616L47.133 5.34583ZM53.7337 7.85369C54.9148 7.85369 55.7486 8.53149 56.0265 9.48041H59.5006C59.2226 6.90477 57.0687 5.14249 53.8032 5.14249C50.1207 5.14249 47.6194 7.37923 47.6194 10.5649C47.6194 13.8183 50.1207 15.9873 53.8726 15.9873C57.0687 15.9873 59.2226 14.225 59.4311 11.7172H56.0265C55.8867 12.1998 55.5846 12.6226 55.1687 12.9177C54.7529 13.2127 54.2475 13.3628 53.7337 13.3439C52.2051 13.3439 51.1629 12.1916 51.1629 10.6327C51.1629 8.93817 52.2051 7.85369 53.7337 7.85369ZM60.4038 5.34583V8.12481H64.2947V15.784H67.7688V8.12481H71.5902V5.41361H60.4733L60.4038 5.34583ZM80.0668 5.27805C78.6772 5.27805 77.4266 5.82029 76.5928 6.83699V5.34583H73.3272V18.9018H76.8012V14.5639C77.635 15.3773 78.7467 15.9195 80.0668 15.9195C83.2629 15.9195 85.4168 13.6828 85.4168 10.5649C85.4168 7.44701 83.2629 5.27805 80.0668 5.27805ZM79.2331 13.3439C77.7045 13.3439 76.5928 12.1916 76.5928 10.6327C76.5928 8.93817 77.7045 7.85369 79.2331 7.85369C80.8311 7.85369 81.8733 8.93817 81.8733 10.5649C81.8733 12.1916 80.8311 13.2761 79.2331 13.2761V13.3439ZM93.2682 5.14249C89.5857 5.14249 87.0844 7.37923 87.0844 10.5649C87.0844 13.8183 89.5857 15.9873 93.2682 15.9873C96.9506 15.9873 99.4519 13.8183 99.4519 10.5649C99.4519 7.37923 96.9506 5.14249 93.1987 5.14249H93.2682ZM93.2682 13.2761C91.6701 13.2761 90.6279 12.1916 90.6279 10.5649C90.6279 8.93817 91.6701 7.85369 93.2682 7.85369C94.7967 7.85369 95.9084 8.93817 95.9084 10.5649C95.9084 12.1916 94.7967 13.2761 93.2682 13.2761ZM100.425 5.34583V8.12481H104.246V15.784H107.72V8.12481H111.542V5.41361H100.425V5.34583Z" fill="#E95D2A"/>
</svg>
