<svg width="99" height="19" viewBox="0 0 99 19" fill="none" xmlns="http://www.w3.org/2000/svg">
<path d="M86.183 4.58047L86.8484 0.840353H73.7337L73.0799 4.58047H77.4875L74.9215 18.8899H78.7344L81.3005 4.58047H86.183ZM58.2069 18.8899H69.6468L70.3238 15.1492H62.7096L63.3153 11.7704H68.4232L71.6072 8.05302H63.9807L64.5981 4.59239H72.2245L72.8899 0.840353H61.45L58.2069 18.8899ZM35.3392 0.851714L25.9784 18.8666H30.1718L32.322 14.7181H38.4514L39.0456 18.8666H42.8232L40.2334 0.851714H35.3392ZM37.1334 5.478L37.9291 10.978H34.2818L37.1334 5.478ZM95.6748 0.851714H90.7801L81.4192 18.8666H85.6126L87.775 14.7067H93.9044L94.4986 18.8666H98.2762L95.6748 0.851714ZM89.7104 10.9899L92.5736 5.47857L93.3693 10.9899H89.7104ZM60.7967 0.840353H55.9142L49.0122 8.89205L50.4618 0.840353H46.6367L43.3936 18.8899H47.2187L48.6323 10.9893L52.9566 18.8899H57.1975L52.5761 10.4304L60.7967 0.840353ZM28.5682 7.75024C29.2573 3.92776 26.525 0.804565 22.5928 0.804565H11.8299L8.6818 4.52196H21.9274C23.7574 4.52196 24.9805 5.96653 24.6597 7.74968C24.3389 9.53225 22.7834 10.9535 19.1714 10.9535H3.21723L0.0338135 14.6954H12.6615L11.9011 18.9018H15.7025L16.4628 14.6954H19.2542L21.5475 18.8905H25.8L23.1627 14.0665C25.8596 12.9827 28.069 10.5582 28.5682 7.75024Z" fill="url(#paint0_linear)"/>
<path d="M20.6921 5.88587H7.5889L4.40549 9.61462H17.4965L20.6921 5.88587Z" fill="url(#paint1_linear)"/>
<defs>
<linearGradient id="paint0_linear" x1="49.2589" y1="0.804565" x2="49.2589" y2="18.9825" gradientUnits="userSpaceOnUse">
<stop stop-color="#FFB100"/>
<stop offset="1" stop-color="#FF5000"/>
</linearGradient>
<linearGradient id="paint1_linear" x1="49.2589" y1="0.804565" x2="49.2589" y2="18.9825" gradientUnits="userSpaceOnUse">
<stop stop-color="#FFB100"/>
<stop offset="1" stop-color="#FF5000"/>
</linearGradient>
</defs>
</svg>
