<svg width="108" height="22" viewBox="0 0 108 22" fill="none" xmlns="http://www.w3.org/2000/svg">
<path d="M43.2464 5.12626C41.3401 5.12626 39.3149 5.96502 38.0044 7.76243V5.4859H33.5964V21.7823H38.0044V12.4358C38.0044 10.7582 39.3149 8.96084 41.6977 8.96084C43.4848 8.96084 45.391 10.2789 45.391 12.4358V21.6624H49.799V11.597C49.918 7.88231 47.1778 5.12626 43.2464 5.12626ZM81.489 5.36602L77.4385 16.5097L73.3876 5.36602H68.3841L75.0557 21.6624H79.9401L86.4925 5.36602H81.489ZM28.831 16.6296C26.9247 18.0676 25.8524 18.3073 24.1846 18.3073C22.6359 18.3073 21.4444 17.828 20.6105 16.9892L31.9283 12.1962C31.6901 10.3988 30.9752 8.84096 30.0223 7.64276C28.4734 5.84535 26.329 5.00658 23.589 5.00658C18.7044 5.00658 15.0111 8.6014 15.0111 13.3944C15.0111 18.3073 18.7044 21.7825 24.0654 21.7825C27.0437 21.7825 30.1413 20.3445 31.5709 18.6668L28.831 16.6296ZM20.2531 10.2789C20.968 9.2004 22.1591 8.6014 23.708 8.6014C25.2567 8.6014 26.5672 9.56004 27.1629 10.8781L19.4192 14.1135C19.181 12.5557 19.6576 11.2376 20.2531 10.2789ZM14.6538 17.5882H4.52722V0.572998H0V21.6624H14.6538V17.5882ZM94.4749 21.9019C89.5905 21.9019 85.778 18.3073 85.778 13.5141C85.778 8.84075 89.5903 5.12626 94.4749 5.12626C99.3593 5.12626 103.172 8.72107 103.172 13.5141C103.291 18.3073 99.4784 21.9019 94.4749 21.9019ZM94.4749 8.96084C91.9729 8.96084 90.1858 10.8781 90.1858 13.5143C90.1858 16.0306 92.0921 18.0678 94.4749 18.0678C96.9767 18.0678 98.7639 16.1505 98.7639 13.5143C98.8827 10.9978 96.9765 8.96084 94.4749 8.96084ZM60.2827 21.9019C55.3984 21.9019 51.5859 18.3073 51.5859 13.5141C51.5859 8.84075 55.3984 5.12626 60.2827 5.12626C65.1673 5.12626 68.9796 8.72107 68.9796 13.5141C68.9796 18.3071 65.1675 21.9019 60.2827 21.9019ZM60.2827 8.96084C57.781 8.96084 55.9937 10.8781 55.9937 13.5143C55.9937 16.0306 57.8999 18.0678 60.2827 18.0678C62.7847 18.0678 64.5718 16.1505 64.5718 13.5143C64.6908 10.9978 62.7847 8.96084 60.2827 8.96084ZM103.886 19.7451H103.172V19.3856H105.078V19.7451H104.363V21.6624H103.886V19.7451ZM105.555 19.3859H106.031L106.746 20.4644L107.461 19.3859H107.937V21.7825H107.461V20.1047L106.746 21.1833L106.031 20.1047V21.7825H105.555V19.3859Z" fill="white"/>
</svg>
