<svg width="79" height="29" viewBox="0 0 79 29" fill="none" xmlns="http://www.w3.org/2000/svg">
<path d="M20.5992 0.463623H27.784V28.2628H20.5992V24.5075H7.74061L14.9562 17.7074H20.5992V10.339L0.638062 28.9022V19.0979L20.5992 0.463623Z" fill="#C32328"/>
<path d="M35.4944 7.74121H29.723V0.463257H54.9299L47.3488 7.74121H43.0655V28.2555H35.4944V7.74121Z" fill="#C32328"/>
<path d="M56.846 7.15248H71.1214L78.1979 0.463257H56.846L49.7593 7.15248V28.2555H66.0128C67.0325 28.2454 67.991 28.0017 68.8781 27.5348C69.7754 27.0577 70.5605 26.4183 71.2335 25.5961C71.9167 24.784 72.4469 23.8603 72.8344 22.825C73.2117 21.7794 73.4156 20.6832 73.4156 19.5463C73.4156 18.2572 73.2219 17.0797 72.8344 16.0342C72.4571 14.9887 71.9269 14.0955 71.2539 13.3545C70.5707 12.6033 69.7856 12.0248 68.8781 11.6289C67.9808 11.2229 67.0223 11.0198 65.972 11.0198H58.3857V17.6989H64.5751C65.1359 17.7091 65.5642 17.8918 65.8701 18.2369C66.176 18.582 66.3391 19.0388 66.3391 19.6174C66.3391 19.9929 66.2677 20.3279 66.125 20.6223C65.9924 20.9166 65.7885 21.14 65.5234 21.3125C65.2583 21.4851 64.9422 21.5663 64.5751 21.5663H56.846V7.15248Z" fill="#C32328"/>
</svg>
