<svg width="50" height="50" viewBox="0 0 50 50" fill="none" xmlns="http://www.w3.org/2000/svg">
<rect width="49.2307" height="49.2307" rx="19" fill="black"/>
<path d="M32.9554 17.4595L21.9913 27.6509C21.606 28.0089 21.3571 28.4898 21.2867 29.0109L20.9136 31.7783C20.8639 32.1476 20.3444 32.1847 20.2425 31.8264L18.8062 26.7799C18.6423 26.204 18.8812 25.5891 19.3911 25.275L32.676 17.0923C32.9144 16.9456 33.1605 17.2688 32.9554 17.4595ZM40.2307 0C45.2013 0 49.2307 4.02944 49.2307 9V40.2307C49.2307 45.2013 45.2013 49.2307 40.2307 49.2307H9C4.02944 49.2307 0 45.2013 0 40.2307V9C0 4.02944 4.02944 0 9 0H40.2307ZM38.2752 11.8277L10.378 22.5896C9.69026 22.8549 9.69554 23.8299 10.3861 24.0878L13.0477 25.0813C15.6564 26.0551 17.6674 28.1816 18.4943 30.8405L19.8147 35.0866C19.9833 35.6285 20.6462 35.8283 21.0861 35.4696L24.8752 32.3807C25.2724 32.0569 25.8376 32.0411 26.2523 32.3421L33.0869 37.3042C33.5573 37.6458 34.2238 37.3882 34.342 36.8189L39.348 12.738C39.4772 12.117 38.8671 11.5993 38.2752 11.8277Z" fill="white"/>
</svg>
