<svg width="256" height="74" viewBox="0 0 256 74" fill="none" xmlns="http://www.w3.org/2000/svg">
<g filter="url(#filter0_d)">
<mask id="path-1-outside-1" maskUnits="userSpaceOnUse" x="4" y="0" width="248" height="66" fill="black">
<rect fill="white" x="4" width="248" height="66"/>
<path d="M25.24 63L8 3H14.2845L28.9767 54.8571L44.4332 3H51.3972L66.8537 54.8571L81.5459 3H87.8304L70.5904 63H63.4566L47.9152 10.8857L32.3737 63H25.24ZM137.097 63L131.577 48.2571H103.382L97.8616 63H91.5771L114.422 3H120.537L143.382 63H137.097ZM105.505 42.6H129.454L117.479 10.4571L105.505 42.6ZM168.731 63L146.82 3H153.275L171.789 55.0286L190.303 3H196.757L174.846 63H168.731ZM219.875 57.3429H248.75V63H213.93V3H248.325V8.65715H219.875V29.9143H246.202V35.5714H219.875V57.3429Z"/>
</mask>
<path d="M25.24 63L22.3566 63.8285L22.9806 66H25.24V63ZM8 3V0H4.01662L5.11666 3.82848L8 3ZM14.2845 3L17.1709 2.18223L16.5526 0H14.2845V3ZM28.9767 54.8571L26.0903 55.6749L31.8517 55.7141L28.9767 54.8571ZM44.4332 3V0H42.197L41.5582 2.14308L44.4332 3ZM51.3972 3L54.2722 2.14308L53.6334 0H51.3972V3ZM66.8537 54.8571L63.9787 55.7141L69.7401 55.6749L66.8537 54.8571ZM81.5459 3V0H79.2777L78.6595 2.18223L81.5459 3ZM87.8304 3L90.7137 3.82848L91.8138 0H87.8304V3ZM70.5904 63V66H72.8498L73.4737 63.8285L70.5904 63ZM63.4566 63L60.5818 63.8573L61.2207 66H63.4566V63ZM47.9152 10.8857L50.7901 10.0284H45.0403L47.9152 10.8857ZM32.3737 63V66H34.6096L35.2486 63.8573L32.3737 63ZM137.097 63L134.288 64.052L135.017 66H137.097V63ZM131.577 48.2571L134.387 47.2052L133.657 45.2571H131.577V48.2571ZM103.382 48.2571V45.2571H101.302L100.572 47.2052L103.382 48.2571ZM97.8616 63V66H99.9417L100.671 64.052L97.8616 63ZM91.5771 63L88.7734 61.9325L87.2247 66H91.5771V63ZM114.422 3V0H112.354L111.618 1.93251L114.422 3ZM120.537 3L123.34 1.93251L122.605 0H120.537V3ZM143.382 63V66H147.734L146.186 61.9325L143.382 63ZM105.505 42.6L102.694 41.5527L101.186 45.6H105.505V42.6ZM129.454 42.6V45.6H133.773L132.265 41.5527L129.454 42.6ZM117.479 10.4571L120.291 9.40984L114.668 9.40983L117.479 10.4571ZM168.731 63L165.913 64.0291L166.633 66H168.731V63ZM146.82 3V0H142.531L144.002 4.02907L146.82 3ZM153.275 3L156.101 1.99426L155.392 0H153.275V3ZM171.789 55.0286L168.962 56.0343L174.615 56.0343L171.789 55.0286ZM190.303 3V0H188.186L187.476 1.99426L190.303 3ZM196.757 3L199.575 4.02908L201.046 0H196.757V3ZM174.846 63V66H176.944L177.664 64.0291L174.846 63ZM219.875 57.3429H216.875V60.3429H219.875V57.3429ZM248.75 57.3429H251.75V54.3429H248.75V57.3429ZM248.75 63V66H251.75V63H248.75ZM213.93 63H210.93V66H213.93V63ZM213.93 3V0H210.93V3H213.93ZM248.325 3H251.325V0H248.325V3ZM248.325 8.65715V11.6571H251.325V8.65715H248.325ZM219.875 8.65715V5.65715H216.875V8.65715H219.875ZM219.875 29.9143H216.875V32.9143H219.875V29.9143ZM246.202 29.9143H249.202V26.9143H246.202V29.9143ZM246.202 35.5714V38.5714H249.202V35.5714H246.202ZM219.875 35.5714V32.5714H216.875V35.5714H219.875ZM28.1233 62.1715L10.8833 2.17152L5.11666 3.82848L22.3566 63.8285L28.1233 62.1715ZM8 6H14.2845V0H8V6ZM11.3981 3.81777L26.0903 55.6749L31.8631 54.0394L17.1709 2.18223L11.3981 3.81777ZM31.8517 55.7141L47.3082 3.85692L41.5582 2.14308L26.1017 54.0002L31.8517 55.7141ZM44.4332 6H51.3972V0H44.4332V6ZM48.5221 3.85692L63.9787 55.7141L69.7287 54.0002L54.2722 2.14308L48.5221 3.85692ZM69.7401 55.6749L84.4323 3.81777L78.6595 2.18223L63.9673 54.0394L69.7401 55.6749ZM81.5459 6H87.8304V0H81.5459V6ZM84.947 2.17152L67.7071 62.1715L73.4737 63.8285L90.7137 3.82848L84.947 2.17152ZM70.5904 60H63.4566V66H70.5904V60ZM66.3315 62.1427L50.7901 10.0284L45.0403 11.7431L60.5818 63.8573L66.3315 62.1427ZM45.0403 10.0284L29.4989 62.1427L35.2486 63.8573L50.7901 11.7431L45.0403 10.0284ZM32.3737 60H25.24V66H32.3737V60ZM139.907 61.948L134.387 47.2052L128.768 49.3091L134.288 64.052L139.907 61.948ZM131.577 45.2571H103.382V51.2571H131.577V45.2571ZM100.572 47.2052L95.0521 61.948L100.671 64.052L106.191 49.3091L100.572 47.2052ZM97.8616 60H91.5771V66H97.8616V60ZM94.3807 64.0675L117.226 4.06749L111.618 1.93251L88.7734 61.9325L94.3807 64.0675ZM114.422 6H120.537V0H114.422V6ZM117.733 4.06749L140.578 64.0675L146.186 61.9325L123.34 1.93251L117.733 4.06749ZM143.382 60H137.097V66H143.382V60ZM105.505 45.6H129.454V39.6H105.505V45.6ZM132.265 41.5527L120.291 9.40984L114.668 11.5045L126.643 43.6473L132.265 41.5527ZM114.668 9.40983L102.694 41.5527L108.316 43.6473L120.291 11.5045L114.668 9.40983ZM171.549 61.9709L149.638 1.97093L144.002 4.02907L165.913 64.0291L171.549 61.9709ZM146.82 6H153.275V0H146.82V6ZM150.448 4.00574L168.962 56.0343L174.615 54.0228L156.101 1.99426L150.448 4.00574ZM174.615 56.0343L193.129 4.00574L187.476 1.99426L168.962 54.0228L174.615 56.0343ZM190.303 6H196.757V0H190.303V6ZM193.939 1.97092L172.028 61.9709L177.664 64.0291L199.575 4.02908L193.939 1.97092ZM174.846 60H168.731V66H174.846V60ZM219.875 60.3429H248.75V54.3429H219.875V60.3429ZM245.75 57.3429V63H251.75V57.3429H245.75ZM248.75 60H213.93V66H248.75V60ZM216.93 63V3H210.93V63H216.93ZM213.93 6H248.325V0H213.93V6ZM245.325 3V8.65715H251.325V3H245.325ZM248.325 5.65715H219.875V11.6571H248.325V5.65715ZM216.875 8.65715V29.9143H222.875V8.65715H216.875ZM219.875 32.9143H246.202V26.9143H219.875V32.9143ZM243.202 29.9143V35.5714H249.202V29.9143H243.202ZM246.202 32.5714H219.875V38.5714H246.202V32.5714ZM216.875 35.5714V57.3429H222.875V35.5714H216.875Z" fill="url(#paint0_linear)" mask="url(#path-1-outside-1)"/>
</g>
<defs>
<filter id="filter0_d" x="0.0166016" y="0" width="255.733" height="74" filterUnits="userSpaceOnUse" color-interpolation-filters="sRGB">
<feFlood flood-opacity="0" result="BackgroundImageFix"/>
<feColorMatrix in="SourceAlpha" type="matrix" values="0 0 0 0 0 0 0 0 0 0 0 0 0 0 0 0 0 0 127 0"/>
<feOffset dy="4"/>
<feGaussianBlur stdDeviation="2"/>
<feColorMatrix type="matrix" values="0 0 0 0 0 0 0 0 0 0 0 0 0 0 0 0 0 0 0.25 0"/>
<feBlend mode="normal" in2="BackgroundImageFix" result="effect1_dropShadow"/>
<feBlend mode="normal" in="SourceGraphic" in2="effect1_dropShadow" result="shape"/>
</filter>
<linearGradient id="paint0_linear" x1="7.04299" y1="33.4568" x2="247.026" y2="33.4568" gradientUnits="userSpaceOnUse">
<stop offset="0.28125" stop-color="#00FFFF"/>
<stop offset="0.921875" stop-color="#FF00FF"/>
</linearGradient>
</defs>
</svg>
