<svg width="471" height="140" viewBox="0 0 471 140" fill="none" xmlns="http://www.w3.org/2000/svg">
<g filter="url(#filter0_d)">
<mask id="path-1-outside-1" maskUnits="userSpaceOnUse" x="4" y="0" width="463" height="132" fill="black">
<rect fill="white" x="4" width="463" height="132"/>
<path d="M47.4305 125L14 7H26.1865L54.6766 108.986L84.6488 7H98.1527L128.125 108.986L156.615 7H168.802L135.371 125H121.538L91.4008 22.5086L61.2639 125H47.4305ZM257.065 125L246.361 96.0057H191.686L180.982 125H168.795L213.095 7H224.952L269.251 125H257.065ZM195.803 84.88H242.243L219.023 21.6657L195.803 84.88ZM315.014 125L272.526 7H285.042L320.942 109.323L356.843 7H369.359L326.871 125H315.014ZM404.008 113.874H460V125H392.48V7H459.177V18.1257H404.008V59.9314H455.06V71.0571H404.008V113.874Z"/>
</mask>
<path d="M47.4305 125L14 7H26.1865L54.6766 108.986L84.6488 7H98.1527L128.125 108.986L156.615 7H168.802L135.371 125H121.538L91.4008 22.5086L61.2639 125H47.4305ZM257.065 125L246.361 96.0057H191.686L180.982 125H168.795L213.095 7H224.952L269.251 125H257.065ZM195.803 84.88H242.243L219.023 21.6657L195.803 84.88ZM315.014 125L272.526 7H285.042L320.942 109.323L356.843 7H369.359L326.871 125H315.014ZM404.008 113.874H460V125H392.48V7H459.177V18.1257H404.008V59.9314H455.06V71.0571H404.008V113.874Z" fill="url(#paint0_linear)"/>
<path d="M47.4305 125L40.6956 126.908L42.1382 132H47.4305V125ZM14 7V0H4.74133L7.26507 8.90807L14 7ZM26.1865 7L32.9284 5.11663L31.499 0H26.1865V7ZM54.6766 108.986L47.9347 110.869L61.3926 110.959L54.6766 108.986ZM84.6488 7V0H79.41L77.9328 5.02627L84.6488 7ZM98.1527 7L104.869 5.02627L103.392 0H98.1527V7ZM128.125 108.986L121.409 110.959L134.867 110.869L128.125 108.986ZM156.615 7V0H151.303L149.873 5.11663L156.615 7ZM168.802 7L175.536 8.90807L178.06 0H168.802V7ZM135.371 125V132H140.663L142.106 126.908L135.371 125ZM121.538 125L114.822 126.975L116.3 132H121.538V125ZM91.4008 22.5086L98.1165 20.5339H84.6851L91.4008 22.5086ZM61.2639 125V132H66.5019L67.9796 126.975L61.2639 125ZM257.065 125L250.498 127.424L252.187 132H257.065V125ZM246.361 96.0057L252.927 93.5813L251.238 89.0057H246.361V96.0057ZM191.686 96.0057V89.0057H186.808L185.119 93.5813L191.686 96.0057ZM180.982 125V132H185.859L187.548 127.424L180.982 125ZM168.795 125L162.242 122.54L158.69 132H168.795V125ZM213.095 7V0H208.246L206.541 4.53972L213.095 7ZM224.952 7L231.505 4.53972L229.801 0H224.952V7ZM269.251 125V132H279.356L275.805 122.54L269.251 125ZM195.803 84.88L189.232 82.4664L185.774 91.88H195.803V84.88ZM242.243 84.88V91.88H252.272L248.814 82.4664L242.243 84.88ZM219.023 21.6657L225.594 19.2521L212.453 19.2521L219.023 21.6657ZM315.014 125L308.428 127.371L310.094 132H315.014V125ZM272.526 7V0H262.565L265.94 9.37143L272.526 7ZM285.042 7L291.647 4.6825L290.004 0H285.042V7ZM320.942 109.323L314.337 111.64H327.548L320.942 109.323ZM356.843 7V0H351.881L350.238 4.6825L356.843 7ZM369.359 7L375.945 9.37144L379.319 0H369.359V7ZM326.871 125V132H331.79L333.457 127.371L326.871 125ZM404.008 113.874H397.008V120.874H404.008V113.874ZM460 113.874H467V106.874H460V113.874ZM460 125V132H467V125H460ZM392.48 125H385.48V132H392.48V125ZM392.48 7V0H385.48V7H392.48ZM459.177 7H466.177V0H459.177V7ZM459.177 18.1257V25.1257H466.177V18.1257H459.177ZM404.008 18.1257V11.1257H397.008V18.1257H404.008ZM404.008 59.9314H397.008V66.9314H404.008V59.9314ZM455.06 59.9314H462.06V52.9314H455.06V59.9314ZM455.06 71.0571V78.0571H462.06V71.0571H455.06ZM404.008 71.0571V64.0571H397.008V71.0571H404.008ZM54.1655 123.092L20.7349 5.09193L7.26507 8.90807L40.6956 126.908L54.1655 123.092ZM14 14H26.1865V0H14V14ZM19.4446 8.88337L47.9347 110.869L61.4185 107.102L32.9284 5.11663L19.4446 8.88337ZM61.3926 110.959L91.3648 8.97373L77.9328 5.02627L47.9606 107.012L61.3926 110.959ZM84.6488 14H98.1527V0H84.6488V14ZM91.4368 8.97373L121.409 110.959L134.841 107.012L104.869 5.02627L91.4368 8.97373ZM134.867 110.869L163.357 8.88337L149.873 5.11663L121.383 107.102L134.867 110.869ZM156.615 14H168.802V0H156.615V14ZM162.067 5.09193L128.636 123.092L142.106 126.908L175.536 8.90807L162.067 5.09193ZM135.371 118H121.538V132H135.371V118ZM128.253 123.025L98.1165 20.5339L84.6851 24.4833L114.822 126.975L128.253 123.025ZM84.6851 20.5339L54.5482 123.025L67.9796 126.975L98.1165 24.4833L84.6851 20.5339ZM61.2639 118H47.4305V132H61.2639V118ZM263.632 122.576L252.927 93.5813L239.794 98.4301L250.498 127.424L263.632 122.576ZM246.361 89.0057H191.686V103.006H246.361V89.0057ZM185.119 93.5813L174.415 122.576L187.548 127.424L198.253 98.4301L185.119 93.5813ZM180.982 118H168.795V132H180.982V118ZM175.348 127.46L219.648 9.46028L206.541 4.53972L162.242 122.54L175.348 127.46ZM213.095 14H224.952V0H213.095V14ZM218.398 9.46028L262.698 127.46L275.805 122.54L231.505 4.53972L218.398 9.46028ZM269.251 118H257.065V132H269.251V118ZM195.803 91.88H242.243V77.88H195.803V91.88ZM248.814 82.4664L225.594 19.2521L212.453 24.0793L235.673 87.2936L248.814 82.4664ZM212.453 19.2521L189.232 82.4664L202.374 87.2936L225.594 24.0793L212.453 19.2521ZM321.6 122.629L279.112 4.62857L265.94 9.37143L308.428 127.371L321.6 122.629ZM272.526 14H285.042V0H272.526V14ZM278.436 9.3175L314.337 111.64L327.548 107.005L291.647 4.6825L278.436 9.3175ZM327.548 111.64L363.448 9.3175L350.238 4.6825L314.337 107.005L327.548 111.64ZM356.843 14H369.359V0H356.843V14ZM362.773 4.62856L320.285 122.629L333.457 127.371L375.945 9.37144L362.773 4.62856ZM326.871 118H315.014V132H326.871V118ZM404.008 120.874H460V106.874H404.008V120.874ZM453 113.874V125H467V113.874H453ZM460 118H392.48V132H460V118ZM399.48 125V7H385.48V125H399.48ZM392.48 14H459.177V0H392.48V14ZM452.177 7V18.1257H466.177V7H452.177ZM459.177 11.1257H404.008V25.1257H459.177V11.1257ZM397.008 18.1257V59.9314H411.008V18.1257H397.008ZM404.008 66.9314H455.06V52.9314H404.008V66.9314ZM448.06 59.9314V71.0571H462.06V59.9314H448.06ZM455.06 64.0571H404.008V78.0571H455.06V64.0571ZM397.008 71.0571V113.874H411.008V71.0571H397.008Z" fill="url(#paint1_linear)" mask="url(#path-1-outside-1)"/>
</g>
<defs>
<filter id="filter0_d" x="0.741211" y="0" width="470.259" height="140" filterUnits="userSpaceOnUse" color-interpolation-filters="sRGB">
<feFlood flood-opacity="0" result="BackgroundImageFix"/>
<feColorMatrix in="SourceAlpha" type="matrix" values="0 0 0 0 0 0 0 0 0 0 0 0 0 0 0 0 0 0 127 0"/>
<feOffset dy="4"/>
<feGaussianBlur stdDeviation="2"/>
<feColorMatrix type="matrix" values="0 0 0 0 0 0 0 0 0 0 0 0 0 0 0 0 0 0 0.57 0"/>
<feBlend mode="normal" in2="BackgroundImageFix" result="effect1_dropShadow"/>
<feBlend mode="normal" in="SourceGraphic" in2="effect1_dropShadow" result="shape"/>
</filter>
<linearGradient id="paint0_linear" x1="20.5" y1="60.9297" x2="459.988" y2="66.8956" gradientUnits="userSpaceOnUse">
<stop offset="0.25" stop-color="#00FFFF"/>
<stop offset="1" stop-color="#FF00FF"/>
</linearGradient>
<linearGradient id="paint1_linear" x1="4.8725" y1="66.8984" x2="470.23" y2="66.8983" gradientUnits="userSpaceOnUse">
<stop offset="0.265937" stop-color="#00FFFF"/>
<stop offset="0.971193" stop-color="#FF00FF"/>
</linearGradient>
</defs>
</svg>
