<svg width="170" height="64" viewBox="0 0 170 64" fill="none" xmlns="http://www.w3.org/2000/svg"><path fill-rule="evenodd" clip-rule="evenodd" d="M141.882 54.312c-3.167 2.785-7.322 3.681-11.458 3.681-1.246 0-3.478-.14-3.478-1.864 0-1.04 1.151-1.827 1.935-2.322l.049-.03c2.909-1.615 7.108-2.298 10.528-2.652-.483-.964-2.743-2.653-3.287-3.043-1.947-1.396-4.229-3.493-4.229-6.092 0-.771.218-1.5.583-2.175 2.498-4.614 7.088-6.904 12.058-7.966.471-.1.96-.176 1.442-.176 2.137 0 3.556 1.113 3.556 3.324 0 1.303-.669 2.528-1.439 3.538-.817 1.073-1.926 2.015-3.346 2.015-.666 0-1.096-.546-1.096-1.173 0-.488.168-1.052.321-1.513.086-.256.217-.673.217-.946 0-.882-.884-.902-1.594-.902-1.288 0-2.43.373-3.445 1.167a.758.758 0 01-.048.035c-.987.684-1.559 1.552-1.559 2.774 0 1.774 1.619 3.225 2.949 4.162 1.612 1.135 3.814 2.966 3.814 5.136 0 .563-.113 1.105-.304 1.622.307-.017.61-.029.898-.029.754 0 1.481.398 1.481 1.25 0 .993-.784 1.53-1.683 1.694l-.038.006a70.07 70.07 0 00-2.827.48zm12.937-17.535c.046-2.263 1.698-3.783 3.634-4.763 1.83-.928 3.788-1.417 5.84-1.417 3.365 0 5.707 1.529 5.707 5.092 0 3.34-2.055 7.214-3.764 9.986-1.617 2.623-3.568 5.383-5.862 7.533.424.249.907.365 1.46.365.811 0 1.633.39 1.633 1.326 0 1.023-.866 1.48-1.787 1.48-1.4 0-2.591-.56-3.583-1.458-1.882 1.224-3.968 1.92-6.254 1.92-2.773 0-4.631-1.35-4.631-4.247 0-2.907 1.404-6.162 2.729-8.694l.016-.03c1.413-2.496 3.019-4.893 4.862-7.093zm6.826-1.198c.222.411.362.86.362 1.34 0 .523-.202 1.016-.676 1.274-1.126.66-2.253 1.431-3.202 2.338-.378 1.388-.502 2.872-.502 4.302 0 1.827.192 3.804.826 5.569 1.514-1.784 2.744-4.069 3.688-6.08 1.103-2.347 2.285-5.386 2.285-8.018 0-.73-.009-1.901-.978-1.901-.819 0-1.387.535-1.803 1.176zm-5.458 16.884c-.895-1.68-1.426-3.535-1.71-5.426-.531 1.193-.924 2.445-.924 3.56 0 1.026.089 2.285 1.364 2.285.434 0 .874-.18 1.27-.419z" fill="#fff"/><path fill-rule="evenodd" clip-rule="evenodd" d="M117.2 45.44c-3.429 4.22-8.995 10.478-12.417 10.478-2.535 0-3.862-1.53-3.862-4.015 0-2.237.862-4.64 1.783-6.65l.015-.03c.813-1.629 1.718-3.263 2.595-4.878a1.4 1.4 0 01-.243-.814c0-.24.053-.479.129-.707a.944.944 0 01.077-.174 148.484 148.484 0 011.76-3.094c.225-.382.609-1.082.922-1.41 1.369-1.501 3.399-1.935 5.355-1.935.858 0 1.403.647 1.403 1.48 0 1.12-3.589 6.595-4.23 7.612-.941 1.495-1.71 3.206-2.378 4.838-.485 1.186-1.375 3.438-1.384 4.74.726-.287 1.942-1.282 2.319-1.6 3.894-3.292 7.15-7.555 9.859-11.855l.191-.699c.39-1.428 1.065-2.906 2.351-3.738 1.168-.756 2.562-1.008 3.935-1.008 1.039 0 2.248.367 2.248 1.633 0 .917-.985 2.08-1.553 2.74-.447.52-1.293 1.412-1.652 1.988-.793 1.54-1.268 3.912-1.576 5.598-.361 1.977-.675 4.106-.675 6.119 0 .43.007 2.438.748 2.438 1.028 0 2.485-1.18 3.206-1.818.644-.57 1.524-1.279 2.116-1.907a1.02 1.02 0 01.826-.424c.666 0 1.096.545 1.096 1.172 0 2.082-2.675 4.219-4.19 5.362-1.425 1.024-3.175 1.959-4.975 1.959-3.474 0-4.4-3.063-4.4-6.014 0-1.519.228-3.126.474-4.622l.127-.765zm-27.516-8.834c.526-.87 1.11-1.746 1.779-2.51.847-.968 2.1-1.27 3.341-1.27.136 0 .252.022.379.072l.384.154c.458.184.715.655.622 1.14a1.017 1.017 0 01-.424.65c-.183.29-.41.86-.519 1.122-.517 1.246-.95 2.544-1.352 3.832a81.033 81.033 0 00-1.366 4.97 47.472 47.472 0 00-.931 4.821c.004.827.09 1.682.337 2.473.087.276.174.514.488.514 1.178 0 2.876-1.34 3.703-2.048.4-.355.802-.708 1.21-1.053.3-.253.6-.504.905-.748.212-.17.417-.349.609-.54a.984.984 0 01.72-.298c.622 0 1.106.443 1.166 1.044.094.603-.223 1.228-.534 1.747-.978 1.552-2.244 2.868-3.712 3.963-1.521 1.134-3.289 1.969-5.22 1.969a5.276 5.276 0 01-2.612-.668c-.826-.463-1.472-1.132-1.953-1.945-.538-.908-.802-1.95-.907-2.992-.13-1.301.077-2.645.407-3.872l.006-.024a87.088 87.088 0 01-1.62 2.219 45.855 45.855 0 01-2.988 3.575c-.947 1.02-2.026 1.967-3.243 2.653-1.095.618-2.287.964-3.55.899-1.428-.073-2.64-.848-3.627-1.834-.615-.615-.913-1.392-.913-2.257 0-.776.179-1.516.539-2.202a3.927 3.927 0 011.602-1.65c.855-.47 1.778-.41 2.638.02a.989.989 0 01.546.727c.086.465.473 2.253 1.081 2.374.761.153 1.606-.345 2.189-.778 1.227-.914 2.325-2.146 3.265-3.346a87.094 87.094 0 003.342-4.557 120.594 120.594 0 002.705-4.115c.376-.6.998-1.668 1.508-2.23zM57.066 45.44c-3.429 4.22-8.996 10.478-12.417 10.478-2.535 0-3.863-1.53-3.863-4.015 0-2.237.863-4.64 1.784-6.65l.014-.03c.814-1.629 1.72-3.263 2.596-4.878a1.395 1.395 0 01-.243-.814c0-.24.053-.479.129-.707a.97.97 0 01.076-.174 150.8 150.8 0 011.76-3.094c.226-.382.61-1.082.923-1.41 1.368-1.501 3.399-1.935 5.355-1.935.858 0 1.403.647 1.403 1.48 0 1.12-3.59 6.595-4.23 7.612-.941 1.495-1.71 3.206-2.378 4.838-.486 1.186-1.375 3.438-1.385 4.74.727-.287 1.943-1.282 2.32-1.6 3.894-3.292 7.15-7.555 9.859-11.855l.19-.699c.39-1.428 1.066-2.906 2.351-3.738 1.169-.756 2.563-1.008 3.935-1.008 1.04 0 2.25.367 2.25 1.633 0 .917-.986 2.08-1.554 2.74-.447.52-1.293 1.412-1.652 1.988-.794 1.54-1.268 3.912-1.576 5.598-.361 1.977-.675 4.106-.675 6.119 0 .43.007 2.438.748 2.438 1.028 0 2.485-1.18 3.206-1.818.644-.57 1.523-1.279 2.115-1.907a1.02 1.02 0 01.827-.424c.666 0 1.096.545 1.096 1.172 0 2.082-2.675 4.219-4.19 5.362-1.425 1.024-3.176 1.959-4.975 1.959-3.474 0-4.4-3.063-4.4-6.014 0-1.519.227-3.126.474-4.622l.127-.765z" fill="#fff"/><path fill-rule="evenodd" clip-rule="evenodd" d="M53.206 12.21a.973.973 0 01.39-.182c1.85-.427 3.729-.778 5.616-.981 2.053-.221 4.154-.275 6.219-.275 1.54 0 4.17.245 4.17 2.325 0 .644-.442 1.338-.798 1.85a50.007 50.007 0 01-1.412 1.922 18.744 18.744 0 01-1.586 1.829c-.455.455-1.074 1.028-1.758 1.028-.807 0-1.326-.621-1.326-1.403 0-.515.34-.916.683-1.259.264-.265.522-.537.776-.813.158-.173.319-.344.481-.513a13.699 13.699 0 00-1.536-.085c-.867 0-1.736.035-2.6.111-.958.085-1.914.204-2.866.34-1.238.177-2.473.371-3.707.573a201.06 201.06 0 00-4.872.868c-.919.292-2.46.85-3.1 1.57-.47.528-.705 1.132-.743 1.837-.054 1 .104 2.053.323 3.026.342 1.524.432 3.137.409 4.695-.031 2.065-.43 4.171-.956 6.162-.727 2.748-2.125 5.464-3.594 7.885-.858 1.647-1.99 3.192-3.182 4.612a43.938 43.938 0 01-4.327 4.484c-1.4 1.255-2.888 2.434-4.475 3.444-1.084.69-2.571 1.504-3.89 1.504-1.82 0-2.633-1.325-2.633-3.017 0-1.991.622-4.098 1.337-5.94a38.753 38.753 0 013.275-6.51c1.237-1.98 2.686-3.836 4.395-5.431 1.353-1.262 3.079-2.425 5-2.425h.139c1.135-.571 2.543-1.164 3.803-1.225.417-.179 1.081-.18 1.664-.144a6.93 6.93 0 00.33-1.867 7.664 7.664 0 00-.31-2.395c-.554-2.041-.982-4.404-.68-6.52.222-1.546.676-3.097 1.542-4.411.756-1.148 1.737-2.079 2.97-2.695a18.82 18.82 0 013.17-1.258c.908-.263 1.851-.48 2.794-.574.198-.02.652-.065.865-.142zm-12.38 23.992a3.045 3.045 0 00-.45-.032c-.917 0-1.84.452-2.59.946-1.202.793-2.254 1.918-3.14 3.044-1.22 1.552-2.255 3.278-3.163 5.027-1.054 2.03-1.884 4.186-2.557 6.372.102-.07.19-.134.253-.178 5.202-3.716 8.932-9.439 11.647-15.179z" fill="#fff"/><path fill-rule="evenodd" clip-rule="evenodd" d="M47.879 7.69c-6.247 7.487-12.285 15.372-17.42 23.662-3.744 6.043-10.03 16.216-12.058 23.056-.392 1.319-.727 2.784-.727 4.167 0 .211.034 1.052.22 1.204.017.007.05.005.068.005.303 0 .754-.104 1.051-.169.495-.107 1.054-.215 1.562-.215.738 0 1.557.273 1.557 1.173 0 .816-.755 1.222-1.41 1.483a16.01 16.01 0 01-1.928.617c-.69.18-1.389.33-2.093.443-.442.07-.982.166-1.43.166-2.856 0-4.4-1.645-4.4-4.477 0-6.324 10.372-22.188 13.646-27.435 4.838-7.756 10.007-15.349 15.65-22.545.112-.5.4-1.057.734-1.584-1.23-.062-2.46-.12-3.69-.17a125.534 125.534 0 00-5.297-.115c-6.586 0-14.905.31-21.197 2.406-2.581.86-6.68 2.593-6.68 5.873 0 2.231 1.113 4.185 2.55 5.82 1.894 2.152 4.283 3.715 6.902 4.848.776.335 1.844.87 1.844 1.857 0 .798-.655 1.25-1.403 1.25-.58 0-1.19-.173-1.7-.358C6.446 26.762 0 23.252 0 16.31c0-.917.176-1.85.427-2.751C3.567 3.092 15.765 1.306 25.151 1.306c6.104 0 12.625.973 18.659 2.05l.32-.482a6.233 6.233 0 011.238-1.335c.561-.463 1.21-.813 1.884-1.082C48.109.114 49.056 0 49.974 0c1.113 0 2.556.317 2.556 1.71 0 .54-.593 1.176-.915 1.578-.309.386-.621.77-.936 1.15 2.8.428 13.443 1.901 16.26 2.192 2.466.255 4.984.456 7.465.456a2.53 2.53 0 001.046-.22c.36-.16.704-.356 1.014-.6.284-.222.567-.45.836-.69.332-.295.712-.565 1.177-.565.662 0 1.226.343 1.681.798.478.478.798 1.07.798 1.758 0 .63-.467 1.093-.927 1.454-.42.33-.833.672-1.242 1.016-.538.453-1.07.911-1.6 1.373a9.9 9.9 0 00-1.413 1.51l-3.196 4.792c-.452.724-1.138 1.709-2.094 1.709-.798 0-1.25-.656-1.25-1.404 0-.525.338-1.303.544-1.784.323-.752.641-1.505.958-2.26.315-.752.637-1.502.969-2.248.054-.121.141-.313.219-.504-.213-.075-.443-.141-.57-.178-1.224-.354-2.519-.601-3.773-.82C65.715 9.897 56 8.553 54.12 8.332a221.874 221.874 0 00-6.241-.642z" fill="#fff"/></svg>