<svg width="375" height="737" viewBox="0 0 375 737" fill="none" xmlns="http://www.w3.org/2000/svg"><g filter="url(#filter0_d)"><path d="M7.05 2.986c-52.7.129-64.76 19.022-85.223 73.711l-29.177 150.836s-32.984 83.389 48.866 140.864c75.004 52.668 129.152-9.76 129.31-80.252.157-70.492 80.056-128.699 73.448-182.985C137.665 50.874 59.751 2.857 7.051 2.986z" fill="url(#paint0_linear)"/></g><g filter="url(#filter1_d)"><path d="M383.348 719.731c52.7-.129 64.761-19.022 85.224-73.711l29.176-150.836s32.984-83.389-48.865-140.864c-75.004-52.668-129.152 9.76-129.31 80.252-.157 70.492-80.057 128.699-73.448 182.985 6.608 54.286 84.523 102.303 137.223 102.174z" fill="url(#paint1_linear)"/></g><defs><linearGradient id="paint0_linear" x1="-162.974" y1="-43.558" x2="552.982" y2="493.238" gradientUnits="userSpaceOnUse"><stop offset=".052" stop-color="#F0F"/><stop offset=".901" stop-color="#0FF" stop-opacity=".29"/></linearGradient><linearGradient id="paint1_linear" x1="553.372" y1="766.275" x2="-162.584" y2="229.479" gradientUnits="userSpaceOnUse"><stop offset=".052" stop-color="#F0F"/><stop offset=".901" stop-color="#0FF" stop-opacity=".29"/></linearGradient><filter id="filter0_d" x="-117" y="0" width="278.399" height="405.717" filterUnits="userSpaceOnUse" color-interpolation-filters="sRGB"><feFlood flood-opacity="0" result="BackgroundImageFix"/><feColorMatrix in="SourceAlpha" values="0 0 0 0 0 0 0 0 0 0 0 0 0 0 0 0 0 0 127 0"/><feOffset dx="10" dy="10"/><feGaussianBlur stdDeviation="2"/><feColorMatrix values="0 0 0 0 0.0784314 0 0 0 0 0.0784314 0 0 0 0 0.0784314 0 0 0 0.15 0"/><feBlend in2="BackgroundImageFix" result="effect1_dropShadow"/><feBlend in="SourceGraphic" in2="effect1_dropShadow" result="shape"/></filter><filter id="filter1_d" x="229" y="331" width="278.399" height="405.717" filterUnits="userSpaceOnUse" color-interpolation-filters="sRGB"><feFlood flood-opacity="0" result="BackgroundImageFix"/><feColorMatrix in="SourceAlpha" values="0 0 0 0 0 0 0 0 0 0 0 0 0 0 0 0 0 0 127 0"/><feOffset dx="-10" dy="10"/><feGaussianBlur stdDeviation="2"/><feColorMatrix values="0 0 0 0 0.0784314 0 0 0 0 0.0784314 0 0 0 0 0.0784314 0 0 0 0.15 0"/><feBlend in2="BackgroundImageFix" result="effect1_dropShadow"/><feBlend in="SourceGraphic" in2="effect1_dropShadow" result="shape"/></filter></defs></svg>