<svg width="112" height="19" viewBox="0 0 112 19" fill="none" xmlns="http://www.w3.org/2000/svg"><path d="M12.323 2.364h-.625V.804H7.876v1.56h-.694c-4.17 0-6.81 2.033-6.81 5.693v.678c0 3.592 2.571 5.626 6.88 5.626h.624v1.558h3.822v-1.558h.625c4.238 0 6.879-2.034 6.879-5.694v-.678c0-3.728-2.64-5.693-6.879-5.693v.068zm-5.28 9.353c-1.876 0-2.849-1.152-2.849-3.186v-.27c0-2.034.973-3.186 2.849-3.186h.833v6.574h-.833v.068zm8.337-3.186c0 2.034-1.042 3.186-2.918 3.186h-.764V5.075h.764c1.876 0 2.918 1.084 2.918 3.185v.271zm11.604-3.389c-3.683 0-6.184 2.237-6.184 5.423 0 3.253 2.501 5.422 6.184 5.422 3.682 0 6.183-2.169 6.183-5.422 0-3.186-2.5-5.423-6.183-5.423zm0 8.134c-1.598 0-2.64-1.084-2.64-2.711 0-1.627 1.042-2.711 2.64-2.711 1.528 0 2.64 1.084 2.64 2.71 0 1.628-1.112 2.712-2.64 2.712zm20.149-7.93h-4.03l-4.169 4.88v-4.88H35.46v10.438h3.474v-4.88l4.17 4.88h4.307l-4.864-5.422 4.586-5.016zm6.6 2.508c1.182 0 2.016.677 2.294 1.626H59.5c-.278-2.575-2.432-4.338-5.698-4.338-3.682 0-6.184 2.237-6.184 5.423 0 3.253 2.502 5.422 6.254 5.422 3.196 0 5.35-1.762 5.558-4.27h-3.404c-.14.483-.442.906-.858 1.2a2.333 2.333 0 01-1.435.427c-1.529 0-2.571-1.152-2.571-2.711 0-1.695 1.042-2.78 2.57-2.78zm6.67-2.508v2.779h3.892v7.659h3.474v-7.66h3.821v-2.71H60.473l-.07-.068zm19.664-.068c-1.39 0-2.64.542-3.474 1.559V5.346h-3.266v13.556h3.474v-4.338c.834.813 1.946 1.355 3.266 1.355 3.196 0 5.35-2.236 5.35-5.354s-2.154-5.287-5.35-5.287zm-.834 8.066c-1.529 0-2.64-1.152-2.64-2.711 0-1.695 1.111-2.78 2.64-2.78 1.598 0 2.64 1.085 2.64 2.712 0 1.627-1.042 2.711-2.64 2.711v.068zm14.035-8.202c-3.682 0-6.184 2.237-6.184 5.423 0 3.253 2.502 5.422 6.184 5.422 3.683 0 6.184-2.169 6.184-5.422 0-3.186-2.501-5.423-6.253-5.423h.07zm0 8.134c-1.598 0-2.64-1.084-2.64-2.711 0-1.627 1.042-2.711 2.64-2.711 1.529 0 2.64 1.084 2.64 2.71 0 1.628-1.111 2.712-2.64 2.712zm7.157-7.93v2.779h3.821v7.659h3.474v-7.66h3.822v-2.71h-11.117v-.068z" fill="#E95D2A"/></svg>