<svg width="99" height="19" viewBox="0 0 99 19" fill="none" xmlns="http://www.w3.org/2000/svg"><path d="M86.183 4.58l.665-3.74H73.734l-.654 3.74h4.407l-2.566 14.31h3.813l2.567-14.31h4.882zM58.207 18.89h11.44l.677-3.74H62.71l.605-3.38h5.108l3.184-3.717h-7.626l.617-3.46h7.627L72.89.84H61.45l-3.243 18.05zM35.339.852l-9.36 18.015h4.193l2.15-4.149h6.13l.594 4.149h3.777L40.233.852H35.34zm1.794 4.626l.796 5.5h-3.647l2.851-5.5zM95.675.852H90.78l-9.36 18.015h4.193l2.162-4.16h6.13l.594 4.16h3.777L95.675.852zM89.71 10.99l2.864-5.511.795 5.51H89.71zM60.797.84h-4.883l-6.902 8.052L50.462.84h-3.825l-3.243 18.05h3.825l1.413-7.9 4.325 7.9h4.24l-4.62-8.46 8.22-9.59zM28.568 7.75c.69-3.822-2.043-6.945-5.975-6.945H11.83L8.682 4.522h13.245c1.83 0 3.053 1.445 2.733 3.228-.321 1.782-1.877 3.204-5.489 3.204H3.217l-3.183 3.74H12.66l-.76 4.207h3.802l.76-4.207h2.791l2.293 4.195H25.8l-2.637-4.824c2.697-1.083 4.906-3.508 5.405-6.316z" fill="url(#paint0_linear)"/><path d="M20.692 5.886H7.59L4.405 9.615h13.091l3.196-3.73z" fill="url(#paint1_linear)"/><defs><linearGradient id="paint0_linear" x1="49.259" y1=".805" x2="49.259" y2="18.983" gradientUnits="userSpaceOnUse"><stop stop-color="#FFB100"/><stop offset="1" stop-color="#FF5000"/></linearGradient><linearGradient id="paint1_linear" x1="49.259" y1=".805" x2="49.259" y2="18.983" gradientUnits="userSpaceOnUse"><stop stop-color="#FFB100"/><stop offset="1" stop-color="#FF5000"/></linearGradient></defs></svg>