<svg width="79" height="29" viewBox="0 0 79 29" fill="none" xmlns="http://www.w3.org/2000/svg"><path d="M20.6.464h7.184v27.799h-7.185v-3.756H7.741l7.215-6.8H20.6V10.34L.64 28.902v-9.804L20.598.464zm14.894 7.277h-5.771V.463H54.93l-7.581 7.278h-4.283v20.515h-7.572V7.74z" fill="#C32328"/><path d="M56.846 7.152h14.275L78.198.463H56.846l-7.087 6.69v21.102h16.254a6.21 6.21 0 002.865-.72 7.66 7.66 0 002.356-1.939 9.353 9.353 0 001.6-2.771 9.612 9.612 0 00.582-3.279c0-1.289-.194-2.466-.582-3.512-.377-1.045-.907-1.938-1.58-2.68a6.933 6.933 0 00-2.376-1.725 6.933 6.933 0 00-2.906-.61h-7.586v6.68h6.19c.56.01.988.193 1.294.538.306.345.47.802.47 1.38 0 .376-.072.71-.215 1.005a1.587 1.587 0 01-.602.69c-.265.173-.58.254-.948.254h-7.729V7.152z" fill="#C32328"/></svg>