<svg width="108" height="22" viewBox="0 0 108 22" fill="none" xmlns="http://www.w3.org/2000/svg"><path d="M43.246 5.126c-1.906 0-3.931.839-5.242 2.636V5.486h-4.408v16.296h4.408v-9.346c0-1.678 1.31-3.475 3.694-3.475 1.787 0 3.693 1.318 3.693 3.475v9.226h4.408V11.597c.119-3.715-2.621-6.47-6.553-6.47zm38.243.24l-4.05 11.144-4.051-11.144h-5.004l6.672 16.296h4.884l6.553-16.296h-5.004zM28.831 16.63c-1.906 1.438-2.979 1.677-4.646 1.677-1.55 0-2.74-.479-3.575-1.318l11.318-4.793a9.271 9.271 0 00-1.906-4.553c-1.549-1.798-3.693-2.636-6.433-2.636-4.885 0-8.578 3.594-8.578 8.387 0 4.913 3.693 8.388 9.054 8.388 2.979 0 6.076-1.438 7.506-3.115l-2.74-2.037zm-8.578-6.351C20.968 9.2 22.16 8.6 23.708 8.6c1.549 0 2.86.959 3.455 2.277l-7.744 3.236c-.238-1.558.239-2.876.834-3.835zm-5.6 7.31H4.528V.572H0v21.09h14.654v-4.075zm79.822 4.313c-4.884 0-8.697-3.595-8.697-8.388 0-4.673 3.812-8.388 8.697-8.388 4.884 0 8.697 3.595 8.697 8.388.119 4.793-3.694 8.388-8.697 8.388zm0-12.941c-2.502 0-4.29 1.917-4.29 4.553 0 2.517 1.907 4.554 4.29 4.554 2.502 0 4.289-1.918 4.289-4.554.119-2.516-1.787-4.553-4.29-4.553zM60.283 21.9c-4.885 0-8.697-3.594-8.697-8.387 0-4.673 3.812-8.388 8.697-8.388 4.884 0 8.697 3.595 8.697 8.388 0 4.793-3.813 8.388-8.697 8.388zm0-12.94c-2.502 0-4.29 1.917-4.29 4.553 0 2.517 1.907 4.554 4.29 4.554 2.502 0 4.289-1.918 4.289-4.554.119-2.516-1.787-4.553-4.29-4.553zm43.603 10.784h-.714v-.36h1.906v.36h-.715v1.917h-.477v-1.917zm1.669-.36h.476l.715 1.08.715-1.08h.476v2.397h-.476v-1.677l-.715 1.078-.715-1.078v1.677h-.476v-2.396z" fill="#fff"/></svg>