<svg version="1" xmlns="http://www.w3.org/2000/svg" width="1512" height="1512" viewBox="0 0 1134 1134"><path d="M491.8 340.2l-.3 151.3-245.8.3L0 492v150l245.7.2 245.8.3.3 151.2.2 151.3h150l.2-151.3.3-151.2 245.8-.3 245.7-.2V492l-245.7-.2-245.8-.3-.3-151.3L642 189H492l-.2 151.2z"/><path d="M218.5 267c2.4 8.1 6.5 52 4.9 52-4.8-.1-27.5-2.5-37.8-4-7.1-1.1-13.2-2-13.5-2-.3 0-.6 11.4-.6 25.3v25.2l10.1-1.6c5.5-1 15.4-2.2 22-2.8 6.5-.6 13.8-1.3 16.2-1.6l4.2-.5v5.3c0 8.2-3.4 36.4-5.5 46.2-.4 2 .1 2 25.1 2h25.6l-.7-3c-1.2-6-4.4-31.3-5.1-40.8l-.7-9.8 3.4.5c1.9.3 7 .8 11.4 1.1 4.4.3 14.9 1.5 23.3 2.7 8.4 1.1 15.4 1.9 15.6 1.7.2-.2-.1-5.9-.6-12.7-.7-8-.7-16.4 0-24.5.5-6.7.8-12.4.6-12.6-.1-.2-6.7.6-14.6 1.8-16 2.4-37.8 4.4-38.6 3.6-1.1-1 2.6-35.1 5.4-50l.5-3h-25.5c-22.3 0-25.5.2-25.1 1.5zm646.9 1.5c2.8 14.9 6.5 49 5.4 50-.8.8-22.6-1.2-38.6-3.6-7.9-1.2-14.5-2-14.6-1.8-.2.2.1 5.9.6 12.6.7 8.1.7 16.5 0 24.5-.5 6.8-.8 12.5-.6 12.7.2.2 7.4-.6 16.1-1.8 16.6-2.3 36.5-4.1 37.2-3.5 1 .9-2.9 35.9-5.5 49.9l-.5 3h25.5c25 0 25.5 0 25.1-2-2.1-9.8-5.5-38-5.5-46.2V357l4.3.5c2.3.3 9.6 1 16.1 1.6 6.6.6 16.5 1.8 22 2.8l10.1 1.6v-25.2c0-13.9-.3-25.3-.6-25.3s-6.4.9-13.5 2c-10.1 1.5-32.8 3.9-37.6 4-2 0 1.2-35.6 4.7-51.5.4-2-.1-2-25.1-2h-25.5l.5 3zm-646.9 457c2.1 9.8 5.5 38 5.5 46.2v5.3l-4.2-.5c-2.4-.3-9.7-1-16.2-1.6-6.6-.6-16.5-1.8-22-2.8l-10.1-1.6v50.7l3.5-.6c7-1.3 32.7-4.4 40.9-5l8.4-.7-.6 10.5c-.6 9.5-4.2 38.1-5.2 41.6-.4 1.3 2.8 1.5 25.1 1.5h25.5l-.5-3c-2.3-12.2-5.6-40.2-5.6-47.1v-3.5l7.8.6c6.6.6 32.3 3.7 43.1 5.3 3.1.4 3.3.3 2.8-1.9-1.2-5.3-1.8-27-.9-36.9.5-5.8.8-10.7.6-10.9-.2-.2-7.4.6-16.1 1.8-16.6 2.3-36.5 4.1-37.2 3.5-1-.9 2.8-36 5.4-49.4l.6-3.5h-25.5c-25 0-25.5 0-25.1 2zm647 1c1.2 6 4.4 31.3 5.1 40.8l.7 9.8-3.4-.5c-1.9-.3-7-.8-11.4-1.1-4.4-.3-14.9-1.5-23.3-2.7-8.4-1.1-15.4-1.9-15.6-1.7-.2.2.1 5.1.6 10.9.9 9.9.3 31.6-.9 36.9-.5 2.2-.3 2.3 2.8 1.9 10.8-1.6 36.5-4.7 43.2-5.3l7.7-.6v3.5c0 6.9-3.3 34.9-5.6 47.1l-.5 3h25.5c22.3 0 25.5-.2 25.2-1.5-1.7-5.8-5.6-39.1-5.6-47v-5l8.3.6c8 .6 33.7 3.7 40.7 5l3.5.6v-50.7l-10.1 1.6c-5.5 1-15.4 2.2-22 2.8-6.5.6-13.8 1.3-16.1 1.6l-4.3.5v-5.3c0-8.2 3.4-36.4 5.5-46.2.4-2-.1-2-25.1-2h-25.5l.6 3z"/></svg>