<svg width="256" height="74" viewBox="0 0 256 74" fill="none" xmlns="http://www.w3.org/2000/svg"><g filter="url(#filter0_d)"><mask id="a" maskUnits="userSpaceOnUse" x="4" y="0" width="248" height="66" fill="#000"><path fill="#fff" d="M4 0h248v66H4z"/><path d="M25.24 63L8 3h6.284l14.693 51.857L44.433 3h6.964l15.457 51.857L81.546 3h6.284L70.59 63h-7.133L47.915 10.886 32.374 63H25.24zm111.857 0l-5.52-14.743h-28.195L97.862 63h-6.285l22.845-60h6.115l22.845 60h-6.285zm-31.592-20.4h23.949l-11.975-32.143L105.505 42.6zM168.731 63L146.82 3h6.455l18.514 52.029L190.303 3h6.454l-21.911 60h-6.115zm51.144-5.657h28.875V63h-34.82V3h34.395v5.657h-28.45v21.257h26.327v5.657h-26.327v21.772z"/></mask><path d="M25.24 63l-2.883.828L22.98 66h2.259v-3zM8 3V0H4.017l1.1 3.828L8 3zm6.284 0l2.887-.818L16.553 0h-2.269v3zm14.693 51.857l-2.887.818 5.762.04-2.875-.858zM44.433 3V0h-2.236l-.639 2.143L44.433 3zm6.964 0l2.875-.857L53.633 0h-2.236v3zm15.457 51.857l-2.875.857 5.761-.04-2.886-.817zM81.546 3V0h-2.268l-.619 2.182L81.546 3zm6.284 0l2.884.828L91.814 0H87.83v3zM70.59 63v3h2.26l.624-2.172L70.59 63zm-7.133 0l-2.875.857L61.22 66h2.236v-3zM47.915 10.886l2.875-.858h-5.75l2.875.858zM32.374 63v3h2.236l.639-2.143L32.374 63zm104.723 0l-2.809 1.052.729 1.948h2.08v-3zm-5.52-14.743l2.81-1.052-.73-1.948h-2.08v3zm-28.195 0v-3h-2.08l-.73 1.948 2.81 1.052zM97.862 63v3h2.08l.729-1.948L97.861 63zm-6.285 0l-2.804-1.068L87.225 66h4.352v-3zm22.845-60V0h-2.068l-.736 1.933L114.422 3zm6.115 0l2.803-1.067L122.605 0h-2.068v3zm22.845 60v3h4.352l-1.548-4.068L143.382 63zm-37.877-20.4l-2.811-1.047-1.508 4.047h4.319v-3zm23.949 0v3h4.319l-1.508-4.047-2.811 1.047zm-11.975-32.143l2.812-1.047h-5.623l2.811 1.047zM168.731 63l-2.818 1.03.72 1.97h2.098v-3zM146.82 3V0h-4.289l1.471 4.03L146.82 3zm6.455 0l2.826-1.006L155.392 0h-2.117v3zm18.514 52.029l-2.827 1.005h5.653l-2.826-1.005zM190.303 3V0h-2.117l-.71 1.994L190.303 3zm6.454 0l2.818 1.03L201.046 0h-4.289v3zm-21.911 60v3h2.098l.72-1.97-2.818-1.03zm45.029-5.657h-3v3h3v-3zm28.875 0h3v-3h-3v3zm0 5.657v3h3v-3h-3zm-34.82 0h-3v3h3v-3zm0-60V0h-3v3h3zm34.395 0h3V0h-3v3zm0 5.657v3h3v-3h-3zm-28.45 0v-3h-3v3h3zm0 21.257h-3v3h3v-3zm26.327 0h3v-3h-3v3zm0 5.657v3h3v-3h-3zm-26.327 0v-3h-3v3h3zm-191.752 26.6l-17.24-60-5.766 1.657 17.24 60 5.766-1.657zM8 6h6.284V0H8v6zm3.398-2.182L26.09 55.675l5.773-1.636L17.171 2.182l-5.773 1.636zm20.454 51.896L47.308 3.857l-5.75-1.714L26.102 54l5.75 1.714zM44.433 6h6.964V0h-6.964v6zm4.09-2.143l15.456 51.857L69.729 54 54.272 2.143l-5.75 1.714zM69.74 55.675L84.432 3.818 78.66 2.182 63.967 54.04l5.773 1.636zM81.546 6h6.284V0h-6.284v6zm3.401-3.828l-17.24 60 5.767 1.657 17.24-60-5.767-1.657zM70.59 60h-7.133v6h7.133v-6zm-4.258 2.143L50.79 10.028l-5.75 1.715 15.542 52.114 5.75-1.714zM45.04 10.028L29.5 62.143l5.75 1.714 15.54-52.114-5.75-1.715zM32.374 60H25.24v6h7.134v-6zm107.533 1.948l-5.52-14.743-5.619 2.104 5.52 14.743 5.619-2.104zm-8.33-16.69h-28.195v6h28.195v-6zm-31.005 1.947l-5.52 14.743 5.619 2.104 5.52-14.743-5.619-2.104zM97.862 60h-6.285v6h6.285v-6zm-3.481 4.067l22.845-60-5.608-2.134-22.845 60 5.608 2.134zM114.422 6h6.115V0h-6.115v6zm3.311-1.933l22.845 60 5.608-2.134-22.846-60-5.607 2.134zM143.382 60h-6.285v6h6.285v-6zm-37.877-14.4h23.949v-6h-23.949v6zm26.76-4.047L120.291 9.41l-5.623 2.095 11.975 32.142 5.622-2.094zM114.668 9.41l-11.974 32.143 5.622 2.094 11.975-32.142-5.623-2.095zm56.881 52.56l-21.911-60-5.636 2.06 21.911 60 5.636-2.06zM146.82 6h6.455V0h-6.455v6zm3.628-1.994l18.514 52.028 5.653-2.011-18.514-52.029-5.653 2.012zm24.167 52.028l18.514-52.028-5.653-2.012-18.514 52.029 5.653 2.011zM190.303 6h6.454V0h-6.454v6zm3.636-4.03l-21.911 60 5.636 2.06 21.911-60-5.636-2.06zM174.846 60h-6.115v6h6.115v-6zm45.029.343h28.875v-6h-28.875v6zm25.875-3V63h6v-5.657h-6zm3 2.657h-34.82v6h34.82v-6zm-31.82 3V3h-6v60h6zm-3-57h34.395V0H213.93v6zm31.395-3v5.657h6V3h-6zm3 2.657h-28.45v6h28.45v-6zm-31.45 3v21.257h6V8.657h-6zm3 24.257h26.327v-6h-26.327v6zm23.327-3v5.657h6v-5.657h-6zm3 2.657h-26.327v6h26.327v-6zm-29.327 3v21.772h6V35.57h-6z" fill="url(#paint0_linear)" mask="url(#a)"/></g><defs><linearGradient id="paint0_linear" x1="7.043" y1="33.457" x2="247.026" y2="33.457" gradientUnits="userSpaceOnUse"><stop offset=".281" stop-color="#0FF"/><stop offset=".922" stop-color="#F0F"/></linearGradient><filter id="filter0_d" x=".017" y="0" width="255.733" height="74" filterUnits="userSpaceOnUse" color-interpolation-filters="sRGB"><feFlood flood-opacity="0" result="BackgroundImageFix"/><feColorMatrix in="SourceAlpha" values="0 0 0 0 0 0 0 0 0 0 0 0 0 0 0 0 0 0 127 0"/><feOffset dy="4"/><feGaussianBlur stdDeviation="2"/><feColorMatrix values="0 0 0 0 0 0 0 0 0 0 0 0 0 0 0 0 0 0 0.25 0"/><feBlend in2="BackgroundImageFix" result="effect1_dropShadow"/><feBlend in="SourceGraphic" in2="effect1_dropShadow" result="shape"/></filter></defs></svg>